<?xml version="1.0"?>
<!--Icons from directory ""-->
<svg xmlns="http://www.w3.org/2000/svg" width="24" height="336" viewBox="0 0 24 336"><svg xmlns:xlink="http://www.w3.org/1999/xlink" height="24" width="24" version="1.1" viewBox="0 0 24 24" id="action" y="0"><title>icon / calendar / action</title><desc>Created with Sketch.</desc><g id="action-Symbols" fill-rule="evenodd" fill="none"><g id="action-icon-/-calendar-/-action" fill="#fff"><g id="action-icon_calendar_default-copy" transform="translate(2 2)"><rect id="action-Rectangle" y="2" x="0" height="3" width="20"/><rect id="action-Rectangle-Copy-14" y="0" x="3" height="2" width="2"/><rect id="action-Rectangle-Copy-15" y="0" x="15" height="2" width="2"/><rect id="action-Rectangle-Copy" y="6" x="0" height="6" width="6"/><rect id="action-Rectangle-Copy-11" y="13" x="0" height="6" width="6"/><rect id="action-Rectangle-Copy-2" y="6" x="7" height="6" width="6"/><rect id="action-Rectangle-Copy-12" y="13" x="7" height="6" width="6"/><rect id="action-Rectangle-Copy-3" y="6" x="14" height="6" width="6"/><rect id="action-Rectangle-Copy-13" y="13" x="14" height="6" width="6"/></g></g></g></svg><svg xmlns:xlink="http://www.w3.org/1999/xlink" height="24" width="24" version="1.1" viewBox="0 0 24 24" id="default" y="24"><title>icon / admin / default</title><desc>Created with Sketch.</desc><g id="default-Symbols" fill-rule="evenodd" fill="none"><g id="default-icon-/-admin-/-default"><g id="default-icon_admin_action" transform="translate(1 3)"><circle id="default-Oval-8" cy="4" cx="8" r="4" fill="#77ADDC"/><path id="default-Oval-8-Copy" fill="#77ADDC" d="m16 18c0-4.418-3.582-8-8-8-4.4183 0-8 3.582-8 8h16z"/><path id="default-Combined-Shape" fill="#1354A3" d="m17.286 3.5v-1.5h1.428v1.5c0.456 0.0926 0.881 0.272 1.256 0.5203l1.06-1.0609 1.011 1.0101-1.061 1.0609c0.248 0.3749 0.427 0.7993 0.52 1.2553h1.5v1.4286h-1.5c-0.093 0.456-0.272 0.8804-0.52 1.2553l1.061 1.0604-1.011 1.011-1.06-1.0613c-0.375 0.2483-0.8 0.4273-1.256 0.5203v1.5h-1.428v-1.5c-0.456-0.093-0.881-0.272-1.256-0.5203l-1.06 1.0613-1.011-1.011 1.061-1.0604c-0.248-0.3749-0.427-0.7993-0.52-1.2553h-1.5v-1.4286h1.5c0.093-0.456 0.272-0.8804 0.52-1.2553l-1.061-1.0609 1.011-1.0101 1.06 1.0609c0.375-0.2483 0.8-0.4277 1.256-0.5203zm0.714 5.9286c1.341 0 2.429-1.0873 2.429-2.4286s-1.088-2.4286-2.429-2.4286-2.429 1.0873-2.429 2.4286 1.088 2.4286 2.429 2.4286z"/></g></g></g></svg><svg xmlns:xlink="http://www.w3.org/1999/xlink" height="24" width="24" version="1.1" viewBox="0 0 24 24" id="default2" y="48"><title>icon / dashboard / default</title><desc>Created with Sketch.</desc><g id="default2-Symbols" fill-rule="evenodd" fill="none"><g id="default2-icon-/-dashboard-/-default"><g id="default2-icon_dashboard_default" transform="translate(3 3)"><g fill="#77ADDC"><rect id="default2-Rectangle-Copy-4" height="8" width="8" y="0" x="0"/><rect id="default2-Rectangle-Copy-7" height="8" width="8" y="10" x="10"/><rect id="default2-Rectangle-Copy-5" height="8" width="8" y="0" x="10"/></g><rect id="default2-Rectangle-Copy-6" height="8" width="8" y="10" x="0" fill="#1354A3"/></g></g></g></svg><svg xmlns:xlink="http://www.w3.org/1999/xlink" height="24" width="24" version="1.1" viewBox="0 0 24 24" id="default3" y="72"><title>icon / interact / default</title><desc>Created with Sketch.</desc><g id="default3-Symbols" fill-rule="evenodd" fill="none"><g id="default3-icon-/-interact-/-default"><g id="default3-icon_interact_default" transform="translate(0 1)"><path id="default3-Combined-Shape" fill="#6CADDE" d="m7.18 19h8.82c0.545 0 1-0.451 1-1.007v-11.986c0-0.5571-0.448-1.007-1-1.007h-15c-0.54529 0-1 0.4508-1 1.0068v11.986c0 0.557 0.4477 1.007 0.99996 1.007h3v3l3.18-3z"/><path id="default3-Combined-Shape" fill="#1355A3" d="m18 11v-6.0025c0-0.5512-0.451-0.9975-1.007-0.9975h-8.993v-3.0044c0-0.54986 0.4446-0.9956 1.0009-0.9956h13.998c0.553 0 1.001 0.44484 1.001 0.99558v9.0084c0 0.55-0.445 0.996-1.001 0.996h-4.999zm4 0v3l-2-3h2z"/></g></g></g></svg><svg xmlns:xlink="http://www.w3.org/1999/xlink" height="24" width="24" version="1.1" viewBox="0 0 24 24" id="default4" y="96"><title>icon / provider / default</title><desc>Created with Sketch.</desc><defs><circle id="default4-path-1" cy="11" cx="11" r="11"/><mask id="default4-mask-2" maskContentUnits="userSpaceOnUse" height="22" width="22" y="0" x="0" maskUnits="objectBoundingBox" fill="white"><use xlink:href="#default4-path-1"/></mask></defs><g id="default4-Symbols" fill-rule="evenodd" fill="none"><g id="default4-icon-/-provider-/-default"><g id="default4-icon_provider_default" transform="translate(1 1)"><path id="default4-Combined-Shape" fill="#6CADDE" d="m13 9v-5h-4v5h-5v4h5v5h4v-5h5v-4h-5z"/><use id="default4-Oval-5" xlink:href="#default4-path-1" stroke="#0F52A1" stroke-width="2" mask="url(#default4-mask-2)"/></g></g></g></svg><svg xmlns:xlink="http://www.w3.org/1999/xlink" height="24" width="24" version="1.1" viewBox="0 0 24 24" id="default5" y="120"><title>icon / records / default</title><desc>Created with Sketch.</desc><g id="default5-Symbols" fill-rule="evenodd" fill="none"><g id="default5-icon-/-records-/-default"><g id="default5-icon_records_default" transform="translate(2 2)"><rect id="default5-Rectangle-17" height="5" width="20" y="0" x="0" fill="#6CADDE"/><rect id="default5-Rectangle-17-Copy-3" height="1" width="6" y="2" x="7" fill="#0F52A1"/><g fill="#6CADDE"><rect id="default5-Rectangle-17-Copy" height="5" width="20" y="7" x="0"/><rect id="default5-Rectangle-17-Copy-2" height="5" width="20" y="14" x="0"/><rect id="default5-Rectangle-17-Copy-6" height="1" width="4" y="19" x="2"/><rect id="default5-Rectangle-17-Copy-7" height="1" width="4" y="19" x="14"/></g><rect id="default5-Rectangle-17-Copy-4" height="1" width="6" y="9" x="7" fill="#0F52A1"/><rect id="default5-Rectangle-17-Copy-5" height="1" width="6" y="16" x="7" fill="#0F52A1"/></g></g></g></svg><svg xmlns:xlink="http://www.w3.org/1999/xlink" height="24" width="24" version="1.1" viewBox="0 0 24 24" id="default6" y="144"><title>icon / services / default</title><desc>Created with Sketch.</desc><g id="default6-Symbols" fill-rule="evenodd" fill="none"><g id="default6-icon-/-services-/-default"><g id="default6-icon_services_default" transform="translate(4 3)"><circle id="default6-Oval-2" r="3.5" stroke="#1355A3" cx="5.5" cy="3.5"/><path id="default6-Combined-Shape" fill="#6FAEE0" d="m4 13.387v-9.8876c0-0.8281 0.6658-1.4994 1.5-1.4994 0.8284 0 1.5 0.6664 1.5 1.5086v15.491l-1.5878-0.562c-0.3786-0.134-0.7224-0.413-0.976-0.759-0.0634-0.039-0.1248-0.083-0.1838-0.132l-3.074-2.564c-0.65081-0.543-1.1784-1.662-1.1784-2.518l2.9754e-14 -0.93c2.387e-14 -0.848 0.51748-1.097 1.1661-0.548l2.8339 2.4zm9-2.389c0-0.551 0.444-0.998 1-0.998 0.552 0 1 0.448 1 1.009v5.697c0 0.557-0.323 1.32-0.714 1.696l-0.619 0.598h-0.667v-8.002zm-3-0.501c0-0.8267 0.666-1.497 1.5-1.497 0.828 0 1.5 0.6717 1.5 1.497v8.503h-3v-8.503zm-3-0.9906c0-0.8319 0.6658-1.5064 1.5-1.5064 0.8284 0 1.5 0.6715 1.5 1.5064v9.4936h-3v-9.4936z"/></g></g></g></svg><svg xmlns:xlink="http://www.w3.org/1999/xlink" height="24" width="24" version="1.1" viewBox="0 0 24 24" id="white" y="168"><title>icon / admin / action</title><desc>Created with Sketch.</desc><g id="white-Symbols" fill-rule="evenodd" fill="none"><g id="white-icon-/-admin-/-action" fill="#fff"><g id="white-icon_admin_action" transform="translate(1 3)"><circle id="white-Oval-8" cy="4" cx="8" r="4"/><path id="white-Oval-8-Copy" d="m16 18c0-4.418-3.582-8-8-8-4.4183 0-8 3.582-8 8h16z"/><path id="white-Combined-Shape" d="m17.286 3.5v-1.5h1.428v1.5c0.456 0.0926 0.881 0.272 1.256 0.5203l1.06-1.0609 1.011 1.0101-1.061 1.0609c0.248 0.3749 0.427 0.7993 0.52 1.2553h1.5v1.4286h-1.5c-0.093 0.456-0.272 0.8804-0.52 1.2553l1.061 1.0604-1.011 1.011-1.06-1.0613c-0.375 0.2483-0.8 0.4273-1.256 0.5203v1.5h-1.428v-1.5c-0.456-0.093-0.881-0.272-1.256-0.5203l-1.06 1.0613-1.011-1.011 1.061-1.0604c-0.248-0.3749-0.427-0.7993-0.52-1.2553h-1.5v-1.4286h1.5c0.093-0.456 0.272-0.8804 0.52-1.2553l-1.061-1.0609 1.011-1.0101 1.06 1.0609c0.375-0.2483 0.8-0.4277 1.256-0.5203zm0.714 5.9286c1.341 0 2.429-1.0873 2.429-2.4286s-1.088-2.4286-2.429-2.4286-2.429 1.0873-2.429 2.4286 1.088 2.4286 2.429 2.4286z"/></g></g></g></svg><svg xmlns:xlink="http://www.w3.org/1999/xlink" height="24" width="24" version="1.1" viewBox="0 0 24 24" id="white2" y="192"><title>icon / calendar / default</title><desc>Created with Sketch.</desc><g id="white2-Symbols" fill-rule="evenodd" fill="none"><g id="white2-icon-/-calendar-/-default"><g id="white2-icon_calendar_default" transform="translate(2 2)"><g fill="#0F52A1"><rect id="white2-Rectangle" height="3" width="20" y="2" x="0"/><rect id="white2-Rectangle-Copy-14" height="2" width="2" y="0" x="3"/><rect id="white2-Rectangle-Copy-15" height="2" width="2" y="0" x="15"/></g><rect id="white2-Rectangle-Copy" height="6" width="6" y="6" x="0" fill="#6CADDE"/><rect id="white2-Rectangle-Copy-11" height="6" width="6" y="13" x="0" fill="#0F52A1"/><g fill="#6CADDE"><rect id="white2-Rectangle-Copy-2" height="6" width="6" y="6" x="7"/><rect id="white2-Rectangle-Copy-12" height="6" width="6" y="13" x="7"/><rect id="white2-Rectangle-Copy-3" height="6" width="6" y="6" x="14"/><rect id="white2-Rectangle-Copy-13" height="6" width="6" y="13" x="14"/></g></g></g></g></svg><svg xmlns:xlink="http://www.w3.org/1999/xlink" height="24" width="24" version="1.1" viewBox="0 0 24 24" id="white3" y="216"><title>icon / dashboard / action</title><desc>Created with Sketch.</desc><g id="white3-Symbols" fill-rule="evenodd" fill="none"><g id="white3-icon-/-dashboard-/-action" fill="#fff"><g id="white3-icon_dashboard_default" transform="translate(3 3)"><rect id="white3-Rectangle-Copy-4" y="0" x="0" height="8" width="8"/><rect id="white3-Rectangle-Copy-7" y="10" x="10" height="8" width="8"/><rect id="white3-Rectangle-Copy-5" y="0" x="10" height="8" width="8"/><rect id="white3-Rectangle-Copy-6" y="10" x="0" height="8" width="8"/></g></g></g></svg><svg xmlns:xlink="http://www.w3.org/1999/xlink" height="24" width="24" version="1.1" viewBox="0 0 24 24" id="white4" y="240"><title>icon / interact / action</title><desc>Created with Sketch.</desc><g id="white4-Symbols" fill-rule="evenodd" fill="none"><g id="white4-icon-/-interact-/-action" fill="#fff"><g id="white4-icon_interact_default" transform="translate(0 1)"><path id="white4-Combined-Shape" d="m7.18 19h8.82c0.545 0 1-0.451 1-1.007v-11.986c0-0.5571-0.448-1.007-1-1.007h-15c-0.54529 0-1 0.4508-1 1.0068v11.986c0 0.557 0.4477 1.007 0.99996 1.007h3v3l3.18-3z"/><path id="white4-Combined-Shape" d="m18 11v-6.0025c0-0.5512-0.451-0.9975-1.007-0.9975h-8.993v-3.0044c0-0.54986 0.4446-0.9956 1.0009-0.9956h13.998c0.553 0 1.001 0.44484 1.001 0.99558v9.0084c0 0.55-0.445 0.996-1.001 0.996h-4.999zm4 0v3l-2-3h2z"/></g></g></g></svg><svg xmlns:xlink="http://www.w3.org/1999/xlink" height="24" width="24" version="1.1" viewBox="0 0 24 24" id="white5" y="264"><title>icon / provider / action</title><desc>Created with Sketch.</desc><defs><circle id="white5-path-1" cy="11" cx="11" r="11"/><mask id="white5-mask-2" maskContentUnits="userSpaceOnUse" height="22" width="22" y="0" x="0" maskUnits="objectBoundingBox" fill="white"><use xlink:href="#white5-path-1"/></mask></defs><g id="white5-Symbols" fill-rule="evenodd" fill="none"><g id="white5-icon-/-provider-/-action"><g id="white5-icon_provider_default" transform="translate(1 1)"><path id="white5-Combined-Shape" fill="#fff" d="m13 9v-5h-4v5h-5v4h5v5h4v-5h5v-4h-5z"/><use id="white5-Oval-5" xlink:href="#white5-path-1" stroke="#FFFFFF" stroke-width="2" mask="url(#white5-mask-2)"/></g></g></g></svg><svg xmlns:xlink="http://www.w3.org/1999/xlink" height="24" width="24" version="1.1" viewBox="0 0 24 24" id="white6" y="288"><title>icon / records / action</title><desc>Created with Sketch.</desc><g id="white6-Symbols" fill-rule="evenodd" fill="none"><g id="white6-icon-/-records-/-action" fill="#fff"><g id="white6-icon_records_default" transform="translate(2 2)"><path id="white6-Combined-Shape" d="m0 0h20v5h-20v-5zm7 2v1h6v-1h-6zm-7 5h20v5h-20v-5zm0 7h20v5h-20v-5zm2 5h4v1h-4v-1zm12 0h4v1h-4v-1zm-7-10v1h6v-1h-6zm0 7v1h6v-1h-6z"/></g></g></g></svg><svg xmlns:xlink="http://www.w3.org/1999/xlink" height="24" width="24" version="1.1" viewBox="0 0 24 24" id="white7" y="312"><title>icon / services / action</title><desc>Created with Sketch.</desc><g id="white7-Symbols" fill-rule="evenodd" fill="none"><g id="white7-icon-/-services-/-action"><g id="white7-icon_services_default" transform="translate(4 3)"><circle id="white7-Oval-2" r="3.5" stroke="#fff" cx="5.5" cy="3.5"/><path id="white7-Combined-Shape" fill="#fff" d="m4 13.387v-9.8876c0-0.8281 0.6658-1.4994 1.5-1.4994 0.8284 0 1.5 0.6664 1.5 1.5086v15.491l-1.5878-0.562c-0.3786-0.134-0.7224-0.413-0.976-0.759-0.0634-0.039-0.1248-0.083-0.1838-0.132l-3.074-2.564c-0.65081-0.543-1.1784-1.662-1.1784-2.518l2.9754e-14 -0.93c2.387e-14 -0.848 0.51748-1.097 1.1661-0.548l2.8339 2.4zm9-2.389c0-0.551 0.444-0.998 1-0.998 0.552 0 1 0.448 1 1.009v5.697c0 0.557-0.323 1.32-0.714 1.696l-0.619 0.598h-0.667v-8.002zm-3-0.501c0-0.8267 0.666-1.497 1.5-1.497 0.828 0 1.5 0.6717 1.5 1.497v8.503h-3v-8.503zm-3-0.9906c0-0.8319 0.6658-1.5064 1.5-1.5064 0.8284 0 1.5 0.6715 1.5 1.5064v9.4936h-3v-9.4936z"/></g></g></g></svg></svg>
